HIERARCHY
ROOT Hips
{
  OFFSET -301.059 68.6255 809.502
  CHANNELS 6 Xposition Yposition Zposition Zrotation Xrotation Yrotation
  JOINT Spine
  {
    OFFSET 0 8 0
    CHANNELS 6 Xposition Yposition Zposition Zrotation Xrotation Yrotation
    JOINT Spine1
    {
      OFFSET 0 8 0
      CHANNELS 6 Xposition Yposition Zposition Zrotation Xrotation Yrotation
      JOINT Spine2
      {
        OFFSET 0 8 -2.71911e-05
        CHANNELS 6 Xposition Yposition Zposition Zrotation Xrotation Yrotation
        JOINT Spine3
        {
          OFFSET 0 8 0
          CHANNELS 6 Xposition Yposition Zposition Zrotation Xrotation Yrotation
          JOINT Neck
          {
            OFFSET 0.000193406 17.0001 0.000190044
            CHANNELS 6 Xposition Yposition Zposition Zrotation Xrotation Yrotation
            JOINT Head
            {
              OFFSET 4.07198e-05 10.8 -5.68351e-05
              CHANNELS 6 Xposition Yposition Zposition Zrotation Xrotation Yrotation
              End Site
              {
                OFFSET 0 20.25 0
              }
            }
          }
          JOINT LeftShoulder
          {
            OFFSET 5.00021 17 0.000131281
            CHANNELS 6 Xposition Yposition Zposition Zrotation Xrotation Yrotation
            JOINT LeftShoulder2
            {
              OFFSET 6.45 0 0
              CHANNELS 6 Xposition Yposition Zposition Zrotation Xrotation Yrotation
              JOINT LeftArm
              {
                OFFSET 6.44998 -0.000130865 -0.000314712
                CHANNELS 6 Xposition Yposition Zposition Zrotation Xrotation Yrotation
                JOINT LeftForeArm
                {
                  OFFSET 0 -32.4 -1.99893
                  CHANNELS 6 Xposition Yposition Zposition Zrotation Xrotation Yrotation
                  JOINT LeftHand
                  {
                    OFFSET -1.47711e-05 -25.65 1.99999
                    CHANNELS 6 Xposition Yposition Zposition Zrotation Xrotation Yrotation
                    JOINT LeftHandThumb1
                    {
                      OFFSET -0.499985 -1.49996 2.65001
                      CHANNELS 6 Xposition Yposition Zposition Zrotation Xrotation Yrotation
                      JOINT LeftHandThumb2
                      {
                        OFFSET -1.7135e-05 -3.80003 3.70001
                        CHANNELS 6 Xposition Yposition Zposition Zrotation Xrotation Yrotation
                        JOINT LeftHandThumb3
                        {
                          OFFSET 1.05193e-05 -2.99998 2.69996
                          CHANNELS 6 Xposition Yposition Zposition Zrotation Xrotation Yrotation
                          End Site
                          {
                            OFFSET 0 -2.29999 1.8
                          }
                        }
                      }
                    }
                    JOINT LeftHandIndex
                    {
                      OFFSET 2.67538e-05 -1.90007 1.59998
                      CHANNELS 6 Xposition Yposition Zposition Zrotation Xrotation Yrotation
                      JOINT LeftHandIndex1
                      {
                        OFFSET 0 -8.29995 1.90001
                        CHANNELS 6 Xposition Yposition Zposition Zrotation Xrotation Yrotation
                        JOINT LeftHandIndex2
                        {
                          OFFSET 0 -4.49995 0
                          CHANNELS 6 Xposition Yposition Zposition Zrotation Xrotation Yrotation
                          JOINT LeftHandIndex3
                          {
                            OFFSET -1.90087e-05 -3.40004 0
                            CHANNELS 6 Xposition Yposition Zposition Zrotation Xrotation Yrotation
                            End Site
                            {
                              OFFSET -1.03158e-05 -2.59992 0
                            }
                          }
                        }
                      }
                    }
                    JOINT LeftHandMiddle
                    {
                      OFFSET -0.250001 -2.20003 0.399982
                      CHANNELS 6 Xposition Yposition Zposition Zrotation Xrotation Yrotation
                      JOINT LeftHandMiddle1
                      {
                        OFFSET -1.29981e-05 -8.29996 1.00001
                        CHANNELS 6 Xposition Yposition Zposition Zrotation Xrotation Yrotation
                        JOINT LeftHandMiddle2
                        {
                          OFFSET 0 -4.64998 0
                          CHANNELS 6 Xposition Yposition Zposition Zrotation Xrotation Yrotation
                          JOINT LeftHandMiddle3
                          {
                            OFFSET -2.87924e-05 -3.30003 1.43918e-05
                            CHANNELS 6 Xposition Yposition Zposition Zrotation Xrotation Yrotation
                            End Site
                            {
                              OFFSET -3.75178e-05 -2.69999 -2.06402e-05
                            }
                          }
                        }
                      }
                    }
                    JOINT LeftHandRing
                    {
                      OFFSET -0.500004 -2.15002 -0.799984
                      CHANNELS 6 Xposition Yposition Zposition Zrotation Xrotation Yrotation
                      JOINT LeftHandRing1
                      {
                        OFFSET -1.08836e-05 -7.75003 -0.200031
                        CHANNELS 6 Xposition Yposition Zposition Zrotation Xrotation Yrotation
                        JOINT LeftHandRing2
                        {
                          OFFSET -1.2874e-05 -3.80296 0
                          CHANNELS 6 Xposition Yposition Zposition Zrotation Xrotation Yrotation
                          JOINT LeftHandRing3
                          {
                            OFFSET -1.14996e-05 -3.4 0
                            CHANNELS 6 Xposition Yposition Zposition Zrotation Xrotation Yrotation
                            End Site
                            {
                              OFFSET -6.0128e-05 -2.60005 0
                            }
                          }
                        }
                      }
                    }
                    JOINT LeftHandPinky
                    {
                      OFFSET -0.750026 -1.75003 -1.85001
                      CHANNELS 6 Xposition Yposition Zposition Zrotation Xrotation Yrotation
                      JOINT LeftHandPinky1
                      {
                        OFFSET 0 -7.14996 -0.99999
                        CHANNELS 6 Xposition Yposition Zposition Zrotation Xrotation Yrotation
                        JOINT LeftHandPinky2
                        {
                          OFFSET 0 -3.00227 1.69748e-05
                          CHANNELS 6 Xposition Yposition Zposition Zrotation Xrotation Yrotation
                          JOINT LeftHandPinky3
                          {
                            OFFSET -1.87981e-05 -2.35 -2.46155e-05
                            CHANNELS 6 Xposition Yposition Zposition Zrotation Xrotation Yrotation
                            End Site
                            {
                              OFFSET 0 -2.10001 1.60799e-05
                            }
                          }
                        }
                      }
                    }
                  }
                }
              }
            }
          }
          JOINT RightShoulder
          {
            OFFSET -4.99981 17.0001 0.000223051
            CHANNELS 6 Xposition Yposition Zposition Zrotation Xrotation Yrotation
            JOINT RightShoulder2
            {
              OFFSET -6.45 0 0
              CHANNELS 6 Xposition Yposition Zposition Zrotation Xrotation Yrotation
              JOINT RightArm
              {
                OFFSET -6.44999 0.000271346 -0.000290053
                CHANNELS 6 Xposition Yposition Zposition Zrotation Xrotation Yrotation
                JOINT RightForeArm
                {
                  OFFSET -7.6919e-05 -32.4 -2
                  CHANNELS 6 Xposition Yposition Zposition Zrotation Xrotation Yrotation
                  JOINT RightHand
                  {
                    OFFSET 7.25852e-05 -25.65 2.00001
                    CHANNELS 6 Xposition Yposition Zposition Zrotation Xrotation Yrotation
                    JOINT RightHandThumb1
                    {
                      OFFSET 0.499989 -1.5 2.65
                      CHANNELS 6 Xposition Yposition Zposition Zrotation Xrotation Yrotation
                      JOINT RightHandThumb2
                      {
                        OFFSET 0 -3.80006 3.69999
                        CHANNELS 6 Xposition Yposition Zposition Zrotation Xrotation Yrotation
                        JOINT RightHandThumb3
                        {
                          OFFSET -3.70364e-05 -2.99998 2.70001
                          CHANNELS 6 Xposition Yposition Zposition Zrotation Xrotation Yrotation
                          End Site
                          {
                            OFFSET 0 -2.30001 1.8
                          }
                        }
                      }
                    }
                    JOINT RightHandIndex
                    {
                      OFFSET 4.76315e-05 -1.89994 1.59998
                      CHANNELS 6 Xposition Yposition Zposition Zrotation Xrotation Yrotation
                      JOINT RightHandIndex1
                      {
                        OFFSET -4.26374e-05 -8.30003 1.89997
                        CHANNELS 6 Xposition Yposition Zposition Zrotation Xrotation Yrotation
                        JOINT RightHandIndex2
                        {
                          OFFSET -3.02627e-05 -4.50002 7.14632e-05
                          CHANNELS 6 Xposition Yposition Zposition Zrotation Xrotation Yrotation
                          JOINT RightHandIndex3
                          {
                            OFFSET 4.97003e-05 -3.39999 -1.2256e-05
                            CHANNELS 6 Xposition Yposition Zposition Zrotation Xrotation Yrotation
                            End Site
                            {
                              OFFSET 0 -2.59999 -1.59383e-05
                            }
                          }
                        }
                      }
                    }
                    JOINT RightHandMiddle
                    {
                      OFFSET 0.249997 -2.20001 0.400043
                      CHANNELS 6 Xposition Yposition Zposition Zrotation Xrotation Yrotation
                      JOINT RightHandMiddle1
                      {
                        OFFSET 1.40684e-05 -8.29995 1.00001
                        CHANNELS 6 Xposition Yposition Zposition Zrotation Xrotation Yrotation
                        JOINT RightHandMiddle2
                        {
                          OFFSET -2.00482e-05 -4.64998 -8.36524e-05
                          CHANNELS 6 Xposition Yposition Zposition Zrotation Xrotation Yrotation
                          JOINT RightHandMiddle3
                          {
                            OFFSET 3.00087e-05 -3.3 1.80819e-05
                            CHANNELS 6 Xposition Yposition Zposition Zrotation Xrotation Yrotation
                            End Site
                            {
                              OFFSET -6.17851e-05 -2.69994 9.65635e-05
                            }
                          }
                        }
                      }
                    }
                    JOINT RightHandRing
                    {
                      OFFSET 0.499995 -2.14999 -0.800029
                      CHANNELS 6 Xposition Yposition Zposition Zrotation Xrotation Yrotation
                      JOINT RightHandRing1
                      {
                        OFFSET 3.06863e-05 -7.75005 -0.199989
                        CHANNELS 6 Xposition Yposition Zposition Zrotation Xrotation Yrotation
                        JOINT RightHandRing2
                        {
                          OFFSET 0 -3.79997 -3.50565e-05
                          CHANNELS 6 Xposition Yposition Zposition Zrotation Xrotation Yrotation
                          JOINT RightHandRing3
                          {
                            OFFSET -4.66927e-05 -3.39997 3.43555e-05
                            CHANNELS 6 Xposition Yposition Zposition Zrotation Xrotation Yrotation
                            End Site
                            {
                              OFFSET -1.72469e-05 -2.6 0
                            }
                          }
                        }
                      }
                    }
                    JOINT RightHandPinky
                    {
                      OFFSET 0.750018 -1.74992 -1.84999
                      CHANNELS 6 Xposition Yposition Zposition Zrotation Xrotation Yrotation
                      JOINT RightHandPinky1
                      {
                        OFFSET -1.61434e-05 -7.15004 -0.999953
                        CHANNELS 6 Xposition Yposition Zposition Zrotation Xrotation Yrotation
                        JOINT RightHandPinky2
                        {
                          OFFSET 0 -3.00001 3.55801e-05
                          CHANNELS 6 Xposition Yposition Zposition Zrotation Xrotation Yrotation
                          JOINT RightHandPinky3
                          {
                            OFFSET -1.49252e-05 -2.34999 -5.4005e-05
                            CHANNELS 6 Xposition Yposition Zposition Zrotation Xrotation Yrotation
                            End Site
                            {
                              OFFSET 0 -2.09995 5.55976e-05
                            }
                          }
                        }
                      }
                    }
                  }
                }
              }
            }
          }
        }
      }
    }
  }
  JOINT LeftUpLeg
  {
    OFFSET 7.99998 0 2.10674e-05
    CHANNELS 6 Xposition Yposition Zposition Zrotation Xrotation Yrotation
    JOINT LeftLeg
    {
      OFFSET 3.14437e-05 -45 -1.00004
      CHANNELS 6 Xposition Yposition Zposition Zrotation Xrotation Yrotation
      JOINT LeftFoot
      {
        OFFSET 1.03525e-05 -41 -2
        CHANNELS 6 Xposition Yposition Zposition Zrotation Xrotation Yrotation
        JOINT LeftToeBase
        {
          OFFSET 0 -7.5 12.5
          CHANNELS 6 Xposition Yposition Zposition Zrotation Xrotation Yrotation
          JOINT LeftFootToe
          {
            OFFSET 0 0 4
            CHANNELS 6 Xposition Yposition Zposition Zrotation Xrotation Yrotation
            End Site
            {
              OFFSET 0 0 0
            }
          }
        }
      }
    }
  }
  JOINT RightUpLeg
  {
    OFFSET -7.99998 0 -2.10674e-05
    CHANNELS 6 Xposition Yposition Zposition Zrotation Xrotation Yrotation
    JOINT RightLeg
    {
      OFFSET -1.59652e-05 -45 -0.999977
      CHANNELS 6 Xposition Yposition Zposition Zrotation Xrotation Yrotation
      JOINT RightFoot
      {
        OFFSET 0 -41 -2.00006
        CHANNELS 6 Xposition Yposition Zposition Zrotation Xrotation Yrotation
        JOINT RightToeBase
        {
          OFFSET 0 -7.50002 12.4999
          CHANNELS 6 Xposition Yposition Zposition Zrotation Xrotation Yrotation
          JOINT RightFootToe
          {
            OFFSET 0 0 4
            CHANNELS 6 Xposition Yposition Zposition Zrotation Xrotation Yrotation
            End Site
            {
              OFFSET 0 0 0
            }
          }
        }
      }
    }
  }
}
MOTION
Frames:	2
Frame Time:	0.0111111
-287.897 69.3967 803.812 0.607637 7.42398 -164.04 -1.54449e-05 8 3.39104e-06 14.7764 8.47567 -11.4915 3.05323e-06 8 -2.13291e-05 2.25723 5.99916 -3.74532 7.34485e-06 8 3.403e-05 1.07921 3.02114 -1.84293 0 8 -1.13687e-13 1.07613 3.01527 -1.83796 -0.000172248 17 -0.00025595 -1.59481 0.870287 -1.2398 3.49616e-05 10.8 1.10897e-05 -3.71737 2.05993 -2.85506 4.9998 17 -0.000193509 -2.74157 -1.68416 -3.89529 6.45 -2.84217e-14 0 -1.23249 0.403801 -0.537531 6.45002 0.000119746 0.000350531 60.3463 -12.0022 7.54298 -4.90135e-06 -32.4 -1.99695 1.4371 -57.4072 -20.4727 -1.03261e-05 -25.65 2 29.2637 -35.821 -7.0971 -0.499992 -1.49998 2.64999 -26.4685 13.0884 -8.23824 -4.13717e-07 -3.79998 3.70004 -0.246012 46.3832 -0.00412763 3.5402e-07 -3.00004 2.69995 -0.00983466 -3.37511 0.0489518 1.35361e-05 -1.90009 1.59998 3.60996e-06 -3.51471e-06 -4.13033e-06 6.88047e-06 -8.29995 1.9 -28.2992 -9.18045 -1.99514 -2.07565e-06 -4.49996 -5.41051e-06 -1.82285 0.0133632 0.0245741 -4.28726e-05 -3.4239 2.15166e-05 0.0159973 0.0131048 0.0326796 -0.249993 -2.2 0.4 3.60996e-06 -3.51471e-06 -4.13033e-06 -1.49941e-05 -8.29998 0.999993 -26.7387 -13.6034 -2.52178 -2.49051e-09 -4.64997 1.1277e-06 -8.92024e-05 0.0145639 -3.25758e-06 -2.56664e-05 -3.30004 1.15377e-05 -1.65565e-05 0.0149468 4.99144e-06 -0.500014 -2.15006 -0.800018 3.60996e-06 -3.51471e-06 -4.13033e-06 -8.50461e-06 -7.75001 -0.199999 -32.1761 -6.40545 -0.648485 1.00437e-05 -3.84935 9.02652e-07 -1.35905 -0.00133348 -0.00128609 -1.27827e-05 -3.40003 1.35011e-05 -3.18116e-05 -0.0361921 -0.00149373 -0.75002 -1.75003 -1.85001 3.60996e-06 -3.51471e-06 -4.13033e-06 -1.75934e-05 -7.15 -0.999996 -28.3664 -2.54132 0.520924 1.19021e-05 -3.00609 8.6701e-07 -14.6053 0.00126904 -0.0534567 -1.80488e-05 -2.35002 5.30195e-06 3.83817e-05 -0.0108389 -0.0461748 -5.0002 16.9999 -0.000337222 5.42906 -1.10865 -4.32893 -6.45 0 0 -1.72369 -0.585271 -2.66455 -6.44999 0.000195905 -0.000384437 -51.0631 -9.84942 -50.6467 -7.16054e-05 -32.4 -1.99994 -103.973 -87.728 -113.416 5.84589e-05 -25.65 1.99999 -5.39992 -3.25162 0.130367 0.499998 -1.50004 2.65002 -6.02207 -35.9732 -24.8869 -5.89644e-05 -3.80006 3.70003 0.131468 33.0923 0.0562739 -8.6633e-06 -3 2.69999 0.212567 68.5513 -0.669971 6.03382e-05 -1.89997 1.6 4.66028e-07 9.92357e-07 6.05414e-06 -6.11137e-05 -8.30001 1.89996 7.43847 -9.34364 0.63544 -3.22397e-05 -4.49998 4.85188e-05 40.6342 0.103429 0.117848 4.50079e-05 -3.39999 -1.6755e-05 28.5137 0.0915202 0.0325791 0.249969 -2.19998 0.400045 4.66028e-07 9.92357e-07 6.05414e-06 2.38203e-05 -8.29996 0.999989 3.25232 -7.57117 0.0851655 -1.20684e-05 -4.65003 -2.47509e-05 63.9641 0.452366 0.236003 3.49888e-05 -3.29996 -1.01941e-05 43.4378 0.412433 -0.0888515 0.499994 -2.15003 -0.799997 4.66028e-07 9.92357e-07 6.05414e-06 3.32831e-05 -7.75001 -0.200036 15.1671 1.60313 -0.500019 4.06855e-06 -3.8 1.66202e-05 39.3045 0.385616 0.383268 -2.5278e-05 -3.39995 -9.48401e-06 27.7773 0.317829 0.102562 0.750031 -1.74996 -1.84996 4.66028e-07 9.92357e-07 6.05414e-06 -3.73632e-05 -7.15 -0.999996 19.37 10.8672 -2.53966 -5.09541e-06 -2.99998 2.36568e-05 1.28192 0.022004 0.0981341 -1.51668e-05 -2.35003 -1.12032e-05 1.19478 0.0232687 0.0895821 8.00001 7.23545e-08 -1.02509e-05 0.676478 -65.8686 -9.54358 6.78584e-06 -45 -1.00005 -29.3604 75.209 29.072 4.7885e-06 -41 -2.00001 10.5455 5.39015 -22.1271 -1.91192e-05 -7.5 12.5 -3.09936e-08 -14.261 -2.92499e-06 -2.84217e-14 7.10543e-15 4 -12.8691 6.27611 62.7637 -8.00001 -7.23545e-08 1.02509e-05 29.8237 -57.734 27.8064 8.32895e-06 -45 -1.00001 17.9793 79.0052 -32.3895 -5.4844e-06 -41 -2.00006 -1.27857 13.1976 -3.62687 2.94971e-05 -7.5 12.5 0.000355386 -25.3323 0.0023818 0 -1.77636e-15 4 -5.20381 25.584 49.4812 
-287.942 69.4651 803.885 0.463823 7.46821 -164.18 -1.54449e-05 8 3.39104e-06 14.8594 8.47445 -11.6062 3.05323e-06 8 -2.13291e-05 2.2724 6.00772 -3.73533 7.34485e-06 8 3.403e-05 1.08682 3.0255 -1.83713 5.68434e-14 8 0 1.08379 3.01953 -1.83217 -0.000172248 17 -0.00025595 -1.70787 0.891685 -1.12751 3.49616e-05 10.8 1.10897e-05 -3.98327 2.10888 -2.58932 4.9998 17 -0.000193509 -2.80923 -1.77009 -3.75053 6.45 0 0 -1.23925 0.378817 -0.539435 6.45002 0.000119746 0.000350531 60.0227 -12.0055 7.19231 -4.90135e-06 -32.4 -1.99695 1.84913 -56.8618 -20.515 -1.03261e-05 -25.65 2 31.3043 -35.9179 -5.4417 -0.499992 -1.49998 2.64999 -27.8443 13.3284 -8.48667 -4.13717e-07 -3.79998 3.70004 -0.227177 46.8715 -0.00416504 3.5402e-07 -3.00004 2.69995 -0.008126 -2.9484 0.0432507 1.35361e-05 -1.90009 1.59998 3.60996e-06 -3.51471e-06 -4.13033e-06 6.88047e-06 -8.29995 1.9 -30.3522 -9.20848 -2.14313 -2.07565e-06 -4.49996 -5.41051e-06 -1.82285 0.0133632 0.0245741 -4.28726e-05 -3.4239 2.15166e-05 0.0159973 0.0131048 0.0326796 -0.249993 -2.2 0.4 3.60996e-06 -3.51471e-06 -4.13033e-06 -1.49941e-05 -8.29998 0.999993 -28.3234 -14.1283 -2.78991 -2.49054e-09 -4.64997 1.1277e-06 -8.92024e-05 0.0145639 -3.25758e-06 -2.56664e-05 -3.30004 1.15377e-05 -1.65565e-05 0.0149468 4.99144e-06 -0.500014 -2.15006 -0.800018 3.60996e-06 -3.51471e-06 -4.13033e-06 -8.50461e-06 -7.75001 -0.199999 -35.1361 -6.52956 -0.683163 1.00437e-05 -3.84935 9.02652e-07 -1.35905 -0.00133348 -0.00128609 -1.27827e-05 -3.40003 1.35011e-05 -3.17631e-05 -0.0343309 -0.00149373 -0.75002 -1.75003 -1.85001 3.60996e-06 -3.51471e-06 -4.13033e-06 -1.75934e-05 -7.15 -0.999996 -31.3361 -2.57129 0.652149 1.19021e-05 -3.00609 8.6701e-07 -14.6053 0.00126904 -0.0534567 -1.80488e-05 -2.35002 5.30195e-06 3.83817e-05 -0.0108389 -0.0461748 -5.0002 16.9999 -0.000337222 5.39396 -1.10161 -4.20693 -6.45 0 0 -1.73023 -0.57598 -2.71787 -6.44999 0.000195905 -0.000384437 -52.2129 -11.4687 -50.5855 -7.16054e-05 -32.4 -1.99994 -106.588 -87.4705 -115.689 5.84589e-05 -25.65 1.99999 -6.58562 -3.09695 -0.583392 0.499998 -1.50004 2.65002 -4.79952 -34.0528 -24.0211 -5.89644e-05 -3.80006 3.70003 0.105157 33.1446 0.058943 -8.6633e-06 -3 2.69999 0.212139 68.538 -0.669572 6.03382e-05 -1.89997 1.6 4.66028e-07 9.92357e-07 6.05414e-06 -6.11137e-05 -8.30001 1.89996 8.14814 -9.53026 0.687094 -3.22397e-05 -4.49998 4.85188e-05 42.4792 0.129457 0.12193 4.50079e-05 -3.39999 -1.6755e-05 29.6742 0.109522 0.0253367 0.249969 -2.19998 0.400045 4.66028e-07 9.92357e-07 6.05414e-06 2.38203e-05 -8.29996 0.999989 2.805 -8.53178 0.0963192 -1.20684e-05 -4.65003 -2.47509e-05 67.0424 0.408119 0.172457 3.49888e-05 -3.29996 -1.01941e-05 45.9684 0.36388 -0.117017 0.499994 -2.15003 -0.799997 4.66028e-07 9.92357e-07 6.05414e-06 3.32831e-05 -7.75001 -0.200036 15.2115 0.532403 -0.338125 4.06855e-06 -3.8 1.66202e-05 42.6336 0.368402 0.306416 -2.5278e-05 -3.39995 -9.48401e-06 29.8608 0.292359 0.0587082 0.750031 -1.74996 -1.84996 4.66028e-07 9.92357e-07 6.05414e-06 -3.73632e-05 -7.15 -0.999996 19.2143 10.2769 -2.4065 -5.09541e-06 -2.99998 2.36568e-05 2.27111 0.0335959 0.137381 -1.51668e-05 -2.35003 -1.12032e-05 2.06501 0.0360416 0.12259 8.00001 7.23544e-08 -1.02509e-05 0.778917 -65.6681 -9.27745 6.78584e-06 -45 -1.00005 -28.9329 75.0262 28.675 4.7885e-06 -41 -2.00001 10.5096 5.47647 -22.1036 -1.91192e-05 -7.5 12.5 -2.88703e-08 -14.2207 -2.92447e-06 -5.68434e-14 -3.55271e-15 4 -12.8517 6.23311 62.7393 -8.00001 -7.23545e-08 1.02509e-05 29.6969 -57.5906 27.8114 8.32895e-06 -45 -1.00001 17.6029 78.8837 -31.9788 -5.4844e-06 -41 -2.00006 -1.26867 13.346 -3.7178 2.94971e-05 -7.5 12.5 0.000359288 -25.4171 0.00238347 0 0 4 -5.16778 25.6448 49.4195 
